<svg width="296" height="78" viewBox="0 0 296 78" fill="none" xmlns="http://www.w3.org/2000/svg">
<rect x="1" y="1" width="294" height="76" fill="#222222"/>
<rect x="1" y="1" width="294" height="76" stroke="#444444" stroke-width="2"/>
<g clip-path="url(#clip0_4_2)">
<path d="M24.093 38.478C23.968 38.8148 23.968 39.1852 24.093 39.522C25.3105 42.4742 27.3773 44.9984 30.0312 46.7746C32.685 48.5509 35.8066 49.4991 39 49.4991C42.1934 49.4991 45.315 48.5509 47.9688 46.7746C50.6227 44.9984 52.6894 42.4742 53.907 39.522C54.032 39.1852 54.032 38.8148 53.907 38.478C52.6894 35.5258 50.6227 33.0016 47.9688 31.2253C45.315 29.4491 42.1934 28.5009 39 28.5009C35.8066 28.5009 32.685 29.4491 30.0312 31.2253C27.3773 33.0016 25.3105 35.5258 24.093 38.478Z" stroke="white" stroke-width="2" stroke-linecap="round" stroke-linejoin="round"/>
<path d="M39 43.5C41.4853 43.5 43.5 41.4853 43.5 39C43.5 36.5147 41.4853 34.5 39 34.5C36.5147 34.5 34.5 36.5147 34.5 39C34.5 41.4853 36.5147 43.5 39 43.5Z" stroke="white" stroke-width="2" stroke-linecap="round" stroke-linejoin="round"/>
</g>
<path d="M79.426 46.836C78.292 46.836 77.326 46.619 76.528 46.185C75.73 45.751 75.107 45.135 74.659 44.337C74.225 43.539 73.966 42.58 73.882 41.46L76.885 41.313C76.969 41.943 77.13 42.475 77.368 42.909C77.606 43.343 77.907 43.665 78.271 43.875C78.635 44.085 79.069 44.19 79.573 44.19C80.021 44.19 80.399 44.127 80.707 44.001C81.029 43.875 81.274 43.693 81.442 43.455C81.61 43.203 81.694 42.902 81.694 42.552C81.694 42.174 81.603 41.838 81.421 41.544C81.239 41.25 80.917 40.984 80.455 40.746C80.007 40.508 79.37 40.284 78.544 40.074C77.55 39.822 76.724 39.521 76.066 39.171C75.422 38.821 74.946 38.373 74.638 37.827C74.33 37.281 74.176 36.595 74.176 35.769C74.176 34.859 74.372 34.068 74.764 33.396C75.17 32.71 75.751 32.185 76.507 31.821C77.277 31.443 78.208 31.254 79.3 31.254C80.364 31.254 81.274 31.45 82.03 31.842C82.786 32.234 83.374 32.801 83.794 33.543C84.228 34.285 84.48 35.188 84.55 36.252L81.526 36.399C81.456 35.881 81.323 35.433 81.127 35.055C80.931 34.677 80.665 34.39 80.329 34.194C80.007 33.998 79.622 33.9 79.174 33.9C78.572 33.9 78.089 34.054 77.725 34.362C77.375 34.67 77.2 35.09 77.2 35.622C77.2 35.972 77.284 36.273 77.452 36.525C77.634 36.777 77.942 37.001 78.376 37.197C78.824 37.393 79.433 37.596 80.203 37.806C81.337 38.072 82.233 38.422 82.891 38.856C83.549 39.29 84.018 39.801 84.298 40.389C84.578 40.977 84.718 41.663 84.718 42.447C84.718 43.343 84.508 44.12 84.088 44.778C83.668 45.422 83.059 45.926 82.261 46.29C81.477 46.654 80.532 46.836 79.426 46.836ZM87.3558 46.5V31.59H96.6798V34.278H90.3378V37.701H96.4278V40.347H90.3378V43.812H96.8478V46.5H87.3558ZM99.9476 46.5V31.59H109.272V34.278H102.93V37.701H109.02V40.347H102.93V43.812H109.44V46.5H99.9476ZM125.005 46.5V31.59H129.814C130.85 31.59 131.76 31.793 132.544 32.199C133.328 32.591 133.937 33.151 134.371 33.879C134.819 34.593 135.043 35.426 135.043 36.378C135.043 37.344 134.819 38.184 134.371 38.898C133.937 39.612 133.328 40.172 132.544 40.578C131.76 40.97 130.85 41.166 129.814 41.166H127.987V46.5H125.005ZM127.987 38.457H129.499C130.339 38.457 130.962 38.282 131.368 37.932C131.774 37.582 131.977 37.064 131.977 36.378C131.977 35.692 131.774 35.174 131.368 34.824C130.962 34.46 130.339 34.278 129.499 34.278H127.987V38.457ZM137.261 46.5V31.59H142.07C143.68 31.59 144.933 31.996 145.829 32.808C146.739 33.606 147.194 34.691 147.194 36.063C147.194 36.805 147.04 37.449 146.732 37.995C146.424 38.541 146.004 38.968 145.472 39.276C144.94 39.584 144.359 39.766 143.729 39.822L143.645 39.549C144.751 39.563 145.577 39.794 146.123 40.242C146.669 40.676 146.984 41.376 147.068 42.342L147.425 46.5H144.401L144.149 43.14C144.107 42.58 144.009 42.153 143.855 41.859C143.701 41.565 143.463 41.362 143.141 41.25C142.819 41.138 142.392 41.082 141.86 41.082H140.243V46.5H137.261ZM140.243 38.394H141.965C142.665 38.394 143.197 38.212 143.561 37.848C143.939 37.484 144.128 36.98 144.128 36.336C144.128 35.678 143.939 35.174 143.561 34.824C143.197 34.46 142.665 34.278 141.965 34.278H140.243V38.394ZM150.315 46.5V31.59H159.639V34.278H153.297V37.701H159.387V40.347H153.297V43.812H159.807V46.5H150.315ZM165.91 46.5L161.563 31.59H164.734L167.926 43.518H166.96L170.152 31.59H173.323L168.976 46.5H165.91ZM175.288 46.5V43.812H178.543V34.278H175.288V31.59H184.78V34.278H181.525V43.812H184.78V46.5H175.288ZM188.09 46.5V31.59H197.414V34.278H191.072V37.701H197.162V40.347H191.072V43.812H197.582V46.5H188.09ZM200.955 46.5L199.422 31.59H202.236L203.181 43.182H202.887L204.273 33.27H206.163L207.549 43.182H207.255L208.2 31.59H211.014L209.481 46.5H206.31L204.966 37.26H205.47L204.126 46.5H200.955Z" fill="#EDEDED"/>
<defs>
<clipPath id="clip0_4_2">
<rect width="36" height="36" fill="white" transform="translate(21 21)"/>
</clipPath>
</defs>
</svg>
