<svg width="296" height="78" viewBox="0 0 296 78" fill="none" xmlns="http://www.w3.org/2000/svg">
<rect x="1" y="1" width="294" height="76" fill="#C2E812"/>
<rect x="1" y="1" width="294" height="76" stroke="#D9FF3F" stroke-width="2"/>
<path d="M52.5 40.5V49.5C52.5 50.2956 52.1839 51.0587 51.6213 51.6213C51.0587 52.1839 50.2956 52.5 49.5 52.5H28.5C27.7044 52.5 26.9413 52.1839 26.3787 51.6213C25.8161 51.0587 25.5 50.2956 25.5 49.5V28.5C25.5 27.7044 25.8161 26.9413 26.3787 26.3787C26.9413 25.8161 27.7044 25.5 28.5 25.5H37.5" stroke="black" stroke-width="3" stroke-linecap="round" stroke-linejoin="round"/>
<path d="M52.5 25.5L39 39" stroke="black" stroke-width="3" stroke-linecap="round" stroke-linejoin="round"/>
<path d="M43.5 25.5H52.5V34.5" stroke="black" stroke-width="3" stroke-linecap="round" stroke-linejoin="round"/>
<path d="M79.3 46.836C78.096 46.836 77.074 46.535 76.234 45.933C75.408 45.331 74.771 44.456 74.323 43.308C73.889 42.146 73.672 40.732 73.672 39.066C73.672 37.4 73.889 35.986 74.323 34.824C74.771 33.662 75.408 32.78 76.234 32.178C77.074 31.562 78.096 31.254 79.3 31.254C80.504 31.254 81.526 31.562 82.366 32.178C83.206 32.78 83.843 33.662 84.277 34.824C84.711 35.986 84.928 37.4 84.928 39.066C84.928 40.732 84.711 42.146 84.277 43.308C83.843 44.456 83.206 45.331 82.366 45.933C81.526 46.535 80.504 46.836 79.3 46.836ZM79.3 44.19C79.86 44.19 80.329 44.015 80.707 43.665C81.085 43.301 81.372 42.741 81.568 41.985C81.764 41.229 81.862 40.256 81.862 39.066C81.862 37.876 81.764 36.903 81.568 36.147C81.372 35.377 81.085 34.81 80.707 34.446C80.329 34.082 79.86 33.9 79.3 33.9C78.754 33.9 78.285 34.082 77.893 34.446C77.515 34.81 77.228 35.377 77.032 36.147C76.836 36.903 76.738 37.876 76.738 39.066C76.738 40.256 76.836 41.229 77.032 41.985C77.228 42.741 77.515 43.301 77.893 43.665C78.285 44.015 78.754 44.19 79.3 44.19ZM87.2298 46.5V31.59H92.0388C93.0748 31.59 93.9848 31.793 94.7688 32.199C95.5528 32.591 96.1618 33.151 96.5958 33.879C97.0438 34.593 97.2678 35.426 97.2678 36.378C97.2678 37.344 97.0438 38.184 96.5958 38.898C96.1618 39.612 95.5528 40.172 94.7688 40.578C93.9848 40.97 93.0748 41.166 92.0388 41.166H90.2118V46.5H87.2298ZM90.2118 38.457H91.7238C92.5638 38.457 93.1868 38.282 93.5928 37.932C93.9988 37.582 94.2018 37.064 94.2018 36.378C94.2018 35.692 93.9988 35.174 93.5928 34.824C93.1868 34.46 92.5638 34.278 91.7238 34.278H90.2118V38.457ZM99.9476 46.5V31.59H109.272V34.278H102.93V37.701H109.02V40.347H102.93V43.812H109.44V46.5H99.9476ZM112.119 46.5V31.59H115.038L119.175 41.229V31.59H122.031V46.5H119.112L114.975 36.861V46.5H112.119ZM137.513 46.5V43.812H140.768V34.278H137.513V31.59H147.005V34.278H143.75V43.812H147.005V46.5H137.513ZM149.895 46.5V31.59H152.814L156.951 41.229V31.59H159.807V46.5H156.888L152.751 36.861V46.5H149.895ZM174.133 46.5L178.207 31.59H181.861L185.935 46.5H182.932L180.034 35.202L177.136 46.5H174.133ZM176.884 43.329L177.64 40.725H182.428L183.184 43.329H176.884ZM192.626 46.836C190.988 46.836 189.714 46.367 188.804 45.429C187.908 44.477 187.46 43.112 187.46 41.334V31.569H190.442V41.586C190.442 42.426 190.631 43.07 191.009 43.518C191.387 43.966 191.926 44.19 192.626 44.19C193.326 44.19 193.865 43.966 194.243 43.518C194.621 43.07 194.81 42.426 194.81 41.586V31.569H197.792V41.334C197.792 43.112 197.337 44.477 196.427 45.429C195.531 46.367 194.264 46.836 192.626 46.836ZM203.727 46.5V34.278H199.758V31.59H210.678V34.278H206.709V46.5H203.727ZM217.81 46.836C216.606 46.836 215.584 46.535 214.744 45.933C213.918 45.331 213.281 44.456 212.833 43.308C212.399 42.146 212.182 40.732 212.182 39.066C212.182 37.4 212.399 35.986 212.833 34.824C213.281 33.662 213.918 32.78 214.744 32.178C215.584 31.562 216.606 31.254 217.81 31.254C219.014 31.254 220.036 31.562 220.876 32.178C221.716 32.78 222.353 33.662 222.787 34.824C223.221 35.986 223.438 37.4 223.438 39.066C223.438 40.732 223.221 42.146 222.787 43.308C222.353 44.456 221.716 45.331 220.876 45.933C220.036 46.535 219.014 46.836 217.81 46.836ZM217.81 44.19C218.37 44.19 218.839 44.015 219.217 43.665C219.595 43.301 219.882 42.741 220.078 41.985C220.274 41.229 220.372 40.256 220.372 39.066C220.372 37.876 220.274 36.903 220.078 36.147C219.882 35.377 219.595 34.81 219.217 34.446C218.839 34.082 218.37 33.9 217.81 33.9C217.264 33.9 216.795 34.082 216.403 34.446C216.025 34.81 215.738 35.377 215.542 36.147C215.346 36.903 215.248 37.876 215.248 39.066C215.248 40.256 215.346 41.229 215.542 41.985C215.738 42.741 216.025 43.301 216.403 43.665C216.795 44.015 217.264 44.19 217.81 44.19ZM225.446 46.5V31.59H228.365L232.502 41.229V31.59H235.358V46.5H232.439L228.302 36.861V46.5H225.446ZM242.993 46.836C241.789 46.836 240.767 46.535 239.927 45.933C239.101 45.331 238.464 44.456 238.016 43.308C237.582 42.146 237.365 40.732 237.365 39.066C237.365 37.4 237.582 35.986 238.016 34.824C238.464 33.662 239.101 32.78 239.927 32.178C240.767 31.562 241.789 31.254 242.993 31.254C244.197 31.254 245.219 31.562 246.059 32.178C246.899 32.78 247.536 33.662 247.97 34.824C248.404 35.986 248.621 37.4 248.621 39.066C248.621 40.732 248.404 42.146 247.97 43.308C247.536 44.456 246.899 45.331 246.059 45.933C245.219 46.535 244.197 46.836 242.993 46.836ZM242.993 44.19C243.553 44.19 244.022 44.015 244.4 43.665C244.778 43.301 245.065 42.741 245.261 41.985C245.457 41.229 245.555 40.256 245.555 39.066C245.555 37.876 245.457 36.903 245.261 36.147C245.065 35.377 244.778 34.81 244.4 34.446C244.022 34.082 243.553 33.9 242.993 33.9C242.447 33.9 241.978 34.082 241.586 34.446C241.208 34.81 240.921 35.377 240.725 36.147C240.529 36.903 240.431 37.876 240.431 39.066C240.431 40.256 240.529 41.229 240.725 41.985C240.921 42.741 241.208 43.301 241.586 43.665C241.978 44.015 242.447 44.19 242.993 44.19ZM254.682 44.442L252.582 35.538L252.939 35.454V46.5H250.209V31.59H253.569L255.984 41.04H255.186L257.601 31.59H260.961V46.5H258.231V35.454L258.588 35.538L256.488 44.442H254.682ZM262.276 46.5L266.35 31.59H270.004L274.078 46.5H271.075L268.177 35.202L265.279 46.5H262.276ZM265.027 43.329L265.783 40.725H270.571L271.327 43.329H265.027Z" fill="#050505"/>
</svg>
